<?xml version="1.0" ?><!DOCTYPE svg  PUBLIC '-//W3C//DTD SVG 1.1//EN'  'http://www.w3.org/Graphics/SVG/1.1/DTD/svg11.dtd'><svg height="512px" style="enable-background:new 0 0 512 512;" version="1.1" viewBox="0 0 512 512" width="512px" xml:space="preserve" xmlns="http://www.w3.org/2000/svg" xmlns:xlink="http://www.w3.org/1999/xlink"><g id="_x34_83_x2C__data_x2C__processing_x2C__Analysis_x2C__reporting_x2C__sync"><g><path d="M260.069,172.93h168.97c2.027,0,3.666,1.641,3.666,3.667v198.449h24.233    V161.545c0-3.695-1.52-7.064-3.964-9.509c-2.415-2.444-5.784-3.964-9.51-3.964H76.642c-3.695,0-7.063,1.52-9.507,3.964    c-2.444,2.444-3.964,5.813-3.964,9.509v213.501h24.231V176.597c0-2.026,1.669-3.667,3.666-3.667H260.069z M425.374,180.264H94.735    v194.782h330.639V180.264z M460.693,382.378h-0.09h-31.475h-0.09H91.067h-0.089H59.533h-0.119H34.138v20.774    c0,5.008,3.429,9.776,8.256,13.473c5.874,4.471,13.623,7.303,20.031,7.303h395.258c6.408,0,14.159-2.832,20.03-7.332    c4.829-3.696,8.286-8.436,8.286-13.443v-20.774H460.693z M265.403,397.817c-1.37-1.37-3.248-2.235-5.334-2.235    c-2.027,0-3.847,0.805-5.187,2.057l-0.149,0.179c-1.37,1.341-2.206,3.249-2.206,5.335c0,2.057,0.835,3.964,2.206,5.336    c1.343,1.341,3.25,2.205,5.336,2.205c2.086,0,3.964-0.864,5.334-2.205c1.343-1.372,2.206-3.279,2.206-5.336    C267.609,401.066,266.746,399.158,265.403,397.817z M260.069,388.279c4.113,0,7.809,1.67,10.521,4.352    c2.681,2.684,4.352,6.408,4.352,10.521c0,4.083-1.671,7.81-4.352,10.492c-2.713,2.713-6.408,4.381-10.521,4.381    c-4.083,0-7.811-1.668-10.521-4.381c-2.683-2.683-4.352-6.409-4.352-10.492c0-4.113,1.669-7.838,4.352-10.521l0.239-0.209    C252.468,389.859,256.105,388.279,260.069,388.279z M235.508,202.945l-23.636,22.802l23.636,22.771V202.945z M204.093,223.094    l32.549-31.385c1.46-1.371,3.755-1.342,5.155,0.119c0.687,0.686,1.044,1.609,1.044,2.533v16.482    c20.088,0.865,38.241,9.389,51.563,22.682l0.179,0.239c13.95,14.039,22.595,33.413,22.595,54.753c0,2.027-1.639,3.667-3.668,3.667    c-2.026,0-3.665-1.64-3.665-3.667c0-19.373-7.809-36.899-20.446-49.627l-0.18-0.178c-12.011-11.982-28.286-19.672-46.377-20.537    v11.565c14.873,0.834,28.285,7.243,38.181,17.139c10.671,10.671,17.258,25.395,17.258,41.638c0,2.027-1.641,3.667-3.638,3.667    c-2.026,0-3.665-1.64-3.665-3.667c0-14.246-5.782-27.123-15.112-36.451c-8.555-8.585-20.148-14.158-33.024-14.993v20.03    c0,2.025-1.639,3.666-3.666,3.666c-1.074,0-2.056-0.478-2.743-1.223l-32.34-31.178c-1.46-1.4-1.49-3.725-0.119-5.156    L204.093,223.094z M284.599,356.327l23.637-22.802l-23.637-22.771V356.327z M316.044,336.178l-32.577,31.387    c-1.432,1.371-3.757,1.342-5.157-0.119c-0.686-0.686-1.013-1.61-1.013-2.534v-16.482c-20.09-0.864-38.241-9.358-51.564-22.683    c-14.068-14.098-22.771-33.531-22.771-54.992c0-2.027,1.639-3.666,3.666-3.666c1.997,0,3.666,1.639,3.666,3.666    c0,19.464,7.868,37.078,20.595,49.807c12.013,11.981,28.316,19.672,46.409,20.536v-11.565    c-14.873-0.834-28.286-7.242-38.211-17.139c-10.67-10.699-17.258-25.395-17.258-41.639c0-2.027,1.639-3.666,3.666-3.666    s3.666,1.639,3.666,3.666c0,14.248,5.754,27.154,15.082,36.453c8.584,8.584,20.149,14.157,33.056,14.992V302.17    c0-2.027,1.64-3.666,3.636-3.666c1.103,0,2.087,0.477,2.772,1.222l32.339,31.177c1.433,1.401,1.491,3.727,0.09,5.157    L316.044,336.178z M135.092,237.967c0,1.402,0.894,2.832,2.057,3.309c2.444,1.193,5.275-0.654,5.275-3.309v-7.332    c0-1.371-0.893-2.831-2.057-3.278c-2.444-1.222-5.275,0.626-5.275,3.278V237.967z M135.092,267.267    c0,1.371,0.894,2.832,2.057,3.278c2.444,1.223,5.275-0.625,5.275-3.278v-7.333c0-1.37-0.893-2.83-2.057-3.278    c-2.444-1.222-5.275,0.626-5.275,3.278V267.267z M135.092,296.566c0,1.371,0.894,2.831,2.057,3.279    c2.444,1.222,5.275-0.627,5.275-3.279v-7.332c0-1.371-0.893-2.832-2.057-3.279c-2.444-1.222-5.275,0.626-5.275,3.279V296.566z     M135.092,325.865c0,1.371,0.894,2.832,2.057,3.279c2.444,1.222,5.275-0.626,5.275-3.279v-7.332c0-1.401-0.893-2.832-2.057-3.309    c-2.444-1.192-5.275,0.656-5.275,3.309V325.865z M135.092,353.943c0,1.4,0.894,2.831,2.057,3.309    c2.444,1.221,5.275-0.656,5.275-3.309v-6.111c0-1.4-0.893-2.831-2.057-3.308c-2.444-1.222-5.275,0.655-5.275,3.308V353.943z     M142.424,201.365c0-1.4-0.893-2.832-2.057-3.309c-2.444-1.222-5.275,0.656-5.275,3.309v7.303c0,1.4,0.894,2.832,2.057,3.309    c2.444,1.222,5.275-0.656,5.275-3.309V201.365z M377.684,237.967c0,1.402,0.924,2.832,2.057,3.309    c2.443,1.193,5.275-0.654,5.275-3.309v-7.332c0-1.371-0.895-2.831-2.056-3.278c-2.444-1.222-5.276,0.626-5.276,3.278V237.967z     M377.684,267.267c0,1.371,0.924,2.832,2.057,3.278c2.443,1.223,5.275-0.625,5.275-3.278v-7.333c0-1.37-0.895-2.83-2.056-3.278    c-2.444-1.222-5.276,0.626-5.276,3.278V267.267z M377.684,296.566c0,1.371,0.924,2.831,2.057,3.279    c2.443,1.222,5.275-0.627,5.275-3.279v-7.332c0-1.371-0.895-2.832-2.056-3.279c-2.444-1.222-5.276,0.626-5.276,3.279V296.566z     M377.684,325.865c0,1.371,0.924,2.832,2.057,3.279c2.443,1.222,5.275-0.626,5.275-3.279v-7.332c0-1.401-0.895-2.832-2.056-3.309    c-2.444-1.192-5.276,0.656-5.276,3.309V325.865z M377.684,353.943c0,1.4,0.924,2.831,2.057,3.309    c2.443,1.221,5.275-0.656,5.275-3.309v-6.111c0-1.4-0.895-2.831-2.056-3.308c-2.444-1.222-5.276,0.655-5.276,3.308V353.943z     M385.016,201.365c0-1.4-0.895-2.832-2.056-3.309c-2.444-1.222-5.276,0.656-5.276,3.309v7.303c0,1.4,0.924,2.832,2.057,3.309    c2.443,1.222,5.275-0.656,5.275-3.309V201.365z M227.222,140.74h65.692v-0.238c0.12-0.984,0.149-2.087,0.149-3.25    c0-9.119-3.695-17.376-9.656-23.367c-5.963-5.961-14.219-9.658-23.338-9.658c-9.121,0-17.377,3.697-23.368,9.688    c-5.961,5.962-9.658,14.219-9.658,23.338c0,1.193,0.06,2.296,0.149,3.279L227.222,140.74z M41.322,453.018    c-2.027,0-3.666-1.639-3.666-3.665s1.639-3.667,3.666-3.667h295.229c2.026,0,3.666,1.641,3.666,3.667s-1.64,3.665-3.666,3.665    H41.322z M214.197,470.991c-2.027,0-3.666-1.639-3.666-3.666c0-2.026,1.639-3.666,3.666-3.666h204.292    c2.026,0,3.666,1.64,3.666,3.666c0,2.027-1.64,3.666-3.666,3.666H214.197z M439.412,470.991c-2.027,0-3.666-1.639-3.666-3.666    c0-2.026,1.639-3.666,3.666-3.666h25.544c2.026,0,3.665,1.64,3.665,3.666c0,2.027-1.639,3.666-3.665,3.666H439.412z     M29.667,470.425c-1.997,0-3.666-1.64-3.666-3.666c0-1.997,1.668-3.636,3.666-3.636h96.812c2.026,0,3.666,1.639,3.666,3.636    c0,2.026-1.639,3.666-3.666,3.666H29.667z M52.022,260.531c0,2.026-1.639,3.665-3.666,3.665s-3.667-1.639-3.667-3.665V148.52    c0-5.693,2.355-10.909,6.11-14.665l0.269-0.237c3.727-3.637,8.823-5.873,14.426-5.873h33.653c1.997,0,3.636,1.641,3.636,3.667    s-1.639,3.665-3.636,3.665H65.494c-3.636,0-6.943,1.461-9.358,3.786l-0.149,0.179c-2.444,2.414-3.964,5.782-3.964,9.479V260.531z     M163.825,140.74h56.066c-0.119-1.223-0.179-2.385-0.179-3.488c0-11.146,4.531-21.221,11.832-28.523    c7.303-7.303,17.377-11.834,28.525-11.834c11.116,0,21.191,4.531,28.493,11.834c7.333,7.303,11.834,17.406,11.834,28.523    c0,1.104-0.06,2.296-0.148,3.488h56.064v-7.512l-27.184-4.083l-0.388-2.683c-0.388-2.443-0.894-4.858-1.52-7.184    c-0.656-2.444-1.431-4.828-2.295-7.063l-0.983-2.504l21.489-17.108l-4.023-6.975l-25.573,10.074l-1.67-2.117    c-1.52-1.848-3.158-3.665-4.947-5.484c-1.818-1.787-3.637-3.457-5.515-4.947l-2.086-1.698l10.044-25.573l-6.943-3.994    L287.61,73.348l-2.505-0.953c-2.235-0.864-4.59-1.639-7.034-2.295s-4.859-1.162-7.242-1.55l-2.683-0.418l-4.054-27.123h-8.047    l-4.083,27.123l-2.653,0.418c-2.385,0.388-4.799,0.894-7.244,1.55s-4.799,1.431-7.035,2.295l-2.502,0.953l-17.109-21.459    l-6.975,3.994l10.074,25.573l-2.086,1.698c-1.967,1.58-3.815,3.219-5.483,4.919c-1.758,1.758-3.429,3.606-4.979,5.513    l-1.699,2.117l-25.573-10.074l-4.024,6.975l21.49,17.078l-0.984,2.504c-0.833,2.236-1.609,4.59-2.265,7.064    c-0.655,2.414-1.162,4.828-1.549,7.242l-0.388,2.653l-27.153,4.083V140.74z" style="fill-rule:evenodd;clip-rule:evenodd;fill:rgb(30,101,181)"/></g></g><g id="Layer_1"/></svg>