<?xml version="1.0" ?><!DOCTYPE svg  PUBLIC '-//W3C//DTD SVG 1.1//EN'  'http://www.w3.org/Graphics/SVG/1.1/DTD/svg11.dtd'><svg height="512px" style="enable-background:new 0 0 512 512;fill:rgb(30,101,181)" version="1.1" viewBox="0 0 512 512" width="512px" xml:space="preserve" xmlns="http://www.w3.org/2000/svg" xmlns:xlink="http://www.w3.org/1999/xlink"><g id="_x37_45_x2C__Business_x2C__gear_x2C__management_x2C__operation_x2C__process"><g><path d="M136.878,254.98v5.901l31.052,4.661c1.6,0.248,2.785,1.543,2.895,3.115c0.469,2.924,1.104,5.819,1.876,8.742    c0.8,3.035,1.765,5.958,2.841,8.771c0.523,1.405,0.055,2.978-1.049,3.86l-24.572,19.58l5.903,10.203l29.259-11.498    c1.462-0.579,3.09-0.057,3.973,1.158c1.902,2.344,3.943,4.578,6.066,6.728c2.234,2.207,4.524,4.274,6.84,6.15    c1.185,0.965,1.571,2.537,1.048,3.86l-11.5,29.289l10.204,5.873l19.581-24.544c0.965-1.241,2.62-1.599,3.998-0.993    c2.758,1.049,5.654,1.986,8.633,2.786l0.109,0.026c2.952,0.801,5.929,1.436,8.909,1.876c1.488,0.249,2.592,1.407,2.813,2.841    l4.688,31.08h11.803l4.66-31.08c0.222-1.572,1.544-2.758,3.089-2.869c2.896-0.469,5.818-1.102,8.742-1.874l0.166-0.028    c2.979-0.8,5.873-1.765,8.632-2.813c1.405-0.551,2.95-0.082,3.832,1.048l19.608,24.544l10.204-5.873l-11.499-29.289    c-0.579-1.462-0.056-3.088,1.158-3.971c2.345-1.875,4.578-3.915,6.728-6.066c2.207-2.207,4.274-4.496,6.15-6.84    c0.938-1.158,2.537-1.545,3.86-1.02l29.261,11.498l5.93-10.203l-24.601-19.58c-1.241-0.992-1.599-2.647-0.991-4.027    c1.076-2.756,2.013-5.651,2.813-8.631c0.799-3.006,1.434-6.012,1.902-8.99c0.221-1.489,1.407-2.619,2.841-2.813l31.052-4.688    v-11.803l-31.052-4.661c-1.626-0.248-2.786-1.6-2.896-3.145c-0.441-2.868-1.075-5.79-1.848-8.688    c-0.828-3.031-1.793-5.983-2.869-8.796c-0.522-1.407-0.082-2.952,1.048-3.86l24.571-19.582l-5.9-10.203l-29.261,11.5    c-1.462,0.58-3.061,0.055-3.942-1.158c-1.848-2.262-3.889-4.523-6.068-6.701c-2.178-2.18-4.494-4.246-6.866-6.178    c-1.213-0.992-1.572-2.646-0.966-4.025l11.445-29.123l-10.23-5.9l-19.554,24.572c-0.993,1.24-2.647,1.598-4.027,0.99    c-2.756-1.047-5.651-1.984-8.631-2.784l-0.111-0.028c-2.949-0.799-5.929-1.434-8.879-1.902c-1.518-0.221-2.619-1.407-2.841-2.841    l-4.66-31.052h-11.803l-4.688,31.08c-0.221,1.599-1.572,2.757-3.116,2.867c-2.896,0.469-5.819,1.104-8.714,1.876l-0.167,0.028    c-2.978,0.798-5.873,1.766-8.632,2.813c-1.379,0.523-2.95,0.055-3.833-1.047l-19.581-24.572l-10.204,5.9l11.5,29.287    c0.551,1.434,0.054,3.063-1.158,3.945c-2.29,1.848-4.55,3.889-6.702,6.066c-2.233,2.233-4.302,4.523-6.178,6.84    c-0.965,1.186-2.536,1.572-3.889,1.047l-29.259-11.527l-5.903,10.23l24.572,19.582c1.214,0.965,1.601,2.619,0.993,3.998    c-1.076,2.758-2.013,5.652-2.785,8.633l-0.056,0.109c-0.772,2.95-1.406,5.928-1.846,8.908c-0.249,1.488-1.435,2.619-2.869,2.813    l-31.052,4.688V254.98z M256.345,101.675c42.304,0,80.638,17.181,108.38,44.897c27.743,27.742,44.897,66.076,44.897,108.408    s-17.154,80.664-44.897,108.381c-27.742,27.742-66.076,44.896-108.38,44.896c-42.332,0-80.666-17.154-108.408-44.896    c-27.743-27.717-44.897-66.049-44.897-108.381s17.154-80.666,44.897-108.408C175.679,118.855,214.013,101.675,256.345,101.675z     M455.731,62.488l-39.822,29.977c-1.489,1.129-3.612,0.828-4.743-0.662c-0.524-0.689-0.717-1.49-0.661-2.29l0.22-26.556H61.701    V278.78c0,1.874-1.518,3.392-3.392,3.392c-1.876,0-3.392-1.518-3.392-3.392V59.564c0-1.876,1.516-3.393,3.392-3.393H410.78    l0.222-26.833c0-1.848,1.544-3.364,3.392-3.337c0.772,0,1.488,0.275,2.041,0.689l39.325,30.418    c1.488,1.131,1.737,3.256,0.605,4.743L455.731,62.488z M56.268,449.514L96.09,419.51c1.488-1.131,3.611-0.828,4.743,0.661    c0.523,0.689,0.744,1.517,0.69,2.316l-0.221,26.558h349.025V233.222c0-1.876,1.517-3.392,3.364-3.392    c1.875,0,3.392,1.516,3.392,3.392v219.188c0,1.876-1.517,3.392-3.392,3.392H101.22l-0.221,26.834c0,1.876-1.544,3.364-3.392,3.364    c-0.772,0-1.461-0.276-2.041-0.717l-39.326-30.39c-1.462-1.132-1.737-3.256-0.607-4.745L56.268,449.514z M289.383,84.025    c1.655,0.358,3.226-0.661,3.75-2.012c0.854-2.098-0.469-4.221-2.481-4.635c-2.097-0.387-4.744-0.965-6.812-1.158    c-0.883-0.193-1.931,0.193-2.455,0.579c-2.509,1.876-1.572,5.517,1.462,6.122L289.383,84.025z M315.002,91.031    c1.71,0.689,3.668-0.387,4.247-1.848c0.8-2.014-0.247-3.835-1.984-4.524l-6.536-2.206c-3.89-1.544-6.233,4.799-2.428,6.315    C310.453,89.598,312.797,90.259,315.002,91.031z M339.242,101.896c3.477,2.068,7.116-3.089,3.366-5.902    c-2.069-1.131-4.192-2.207-6.289-3.254c-4.743-1.902-6.534,4.66-2.978,6.094L339.242,101.896z M361.555,116.292    c3.584,2.702,7.639-2.73,4.081-5.406c-1.821-1.378-3.695-2.757-5.571-4.081c-3.392-2.536-7.611,2.786-3.86,5.57    C357.748,113.672,359.871,115.023,361.555,116.292z M381.409,133.941c3.255,3.227,7.942-1.654,4.854-4.743l-4.883-4.854    c-2.041-2.041-5.734-0.553-5.734,2.37c0,1.05,0.387,1.848,1.048,2.512C378.321,130.771,379.865,132.341,381.409,133.941z     M398.396,154.35c2.813,3.75,8.053-0.525,5.518-3.917c-1.325-1.874-2.704-3.75-4.109-5.569c-2.62-3.503-8.053,0.551-5.351,4.164    C395.805,150.764,397.129,152.556,398.396,154.35z M412.075,177.127c1.462,3.642,7.916,1.602,6.04-3.031    c-1.02-2.069-2.095-4.109-3.199-6.123c-2.455-4.081-8.08-0.303-5.929,3.281C410.034,173.185,411.084,175.143,412.075,177.127z     M422.114,201.728c1.848,4.66,7.888,1.544,6.426-2.095c-0.689-2.18-1.434-4.357-2.233-6.537c-1.737-4.357-7.916-1.572-6.344,2.344    C420.709,197.509,421.425,199.604,422.114,201.728z M428.236,227.539c0.966,4.717,7.502,3.006,6.702-1.047    c-0.304-2.262-0.772-4.578-1.213-6.813c-0.883-4.385-7.502-3.033-6.647,1.325C427.519,223.154,427.961,225.389,428.236,227.539z     M430.388,254.041c0,4.414,6.784,4.414,6.784,0c0-2.315-0.082-4.632-0.165-6.948c0-4.109-6.784-4.522-6.784,0.304    C430.334,249.602,430.388,251.809,430.388,254.041z M428.54,280.545c-0.828,4.108,5.819,5.459,6.647,1.241    c0.44-2.262,0.661-4.8,0.937-7.116c0.662-3.281-4.825-5.846-6.619-1.351C429.064,275.525,428.844,278.256,428.54,280.545z     M422.665,306.44c-0.881,2.179,1.407,4.825,3.752,4.356c1.462-0.247,2.206-1.075,2.73-2.37c0.689-2.208,1.295-4.413,1.902-6.647    c0.993-4.881-5.765-5.598-6.537-1.709L422.665,306.44z M412.903,331.15c-1.876,4.688,4.661,6.563,6.095,2.922l2.896-6.26    c1.765-4.385-4.633-6.618-6.205-2.701C414.806,327.151,413.869,329.137,412.903,331.15z M399.473,354.039    c-2.51,3.338,2.702,7.695,5.571,3.861c1.323-1.902,2.592-3.807,3.833-5.736c2.4-4.025-3.529-7.281-5.736-3.64L399.473,354.039z     M382.706,374.668c-3.034,3.061,1.709,7.887,4.937,4.661l4.66-5.103c2.537-2.537-0.938-7.667-4.771-4.799    C385.905,371.056,384.305,372.986,382.706,374.668z M363.043,392.511c-3.475,2.62,0.496,8.081,4.164,5.351    c1.82-1.434,3.612-2.869,5.378-4.357c3.641-3.641-1.71-7.833-4.386-5.157C366.519,389.78,364.779,391.16,363.043,392.511z     M340.897,407.154c-4.054,2.455-0.304,8.08,3.281,5.93c2.015-1.104,4.056-2.289,5.985-3.475c3.778-2.29,0.275-8.081-3.447-5.847    C344.786,404.948,342.855,406.078,340.897,407.154z M316.74,418.269c-4.303,1.737-1.572,7.942,2.398,6.342    c2.151-0.772,4.274-1.627,6.397-2.509c3.999-1.599,1.655-7.971-2.591-6.26C320.904,416.696,318.835,417.497,316.74,418.269z     M291.23,425.549c-4.109,0.827-3.116,7.528,1.352,6.619c2.26-0.442,4.494-0.938,6.728-1.489c4.027-0.801,3.116-7.53-1.599-6.591    C295.56,424.61,293.408,425.107,291.23,425.549z M264.865,428.831c-4.109,0-4.439,6.783,0.222,6.783    c2.316-0.082,4.688-0.275,7.005-0.469c4.054,0,4.219-6.757-0.607-6.757C269.279,428.581,267.071,428.748,264.865,428.831z     M238.308,428.113c-3.804-0.744-5.598,5.929-0.826,6.729c2.288,0.275,4.688,0.414,7.005,0.606c5.019,0,4.385-6.783,0.44-6.783    C242.721,428.527,240.515,428.334,238.308,428.113z M212.166,423.397c-4.827-0.965-5.626,5.763-1.683,6.563l6.702,1.6    c4.522,0.909,5.654-5.764,1.434-6.618L212.166,423.397z M187.069,414.71c-4.357-1.737-6.647,4.661-2.674,6.233    c2.095,0.91,4.218,1.793,6.37,2.619c4.192,1.684,6.343-4.771,2.481-6.315L187.069,414.71z M163.573,402.301    c-3.944-2.373-7.28,3.53-3.585,5.736c1.958,1.212,3.915,2.427,5.901,3.585c3.724,2.233,7.309-3.531,3.392-5.873    C167.351,404.617,165.449,403.486,163.573,402.301z M142.254,386.443c-2.867-2.867-7.638,1.93-4.771,4.826    c1.6,1.571,3.889,3.364,5.654,4.744c3.751,2.84,7.612-2.759,4.22-5.297C145.646,389.313,143.938,387.904,142.254,386.443z     M123.585,367.553c-3.613-3.613-7.861,1.709-5.157,4.412c1.488,1.765,3.006,3.476,4.578,5.186    c3.392,3.391,7.886-1.684,4.962-4.607C126.481,370.917,125.02,369.262,123.585,367.553z M107.976,346.069    c-2.234-3.749-8.107-0.331-5.763,3.558c1.13,1.958,2.481,3.944,3.75,5.818c0.414,0.718,1.351,1.269,2.041,1.407    c3.145,0.634,5.157-2.565,3.557-5.186C110.376,349.848,109.079,347.945,107.976,346.069z M95.841,322.463    c-1.599-3.971-7.97-1.627-6.259,2.62L95.841,322.463z M87.431,297.258c-0.303-1.546-2.013-2.813-3.806-2.512    c-1.931,0.387-3.199,1.986-2.759,4.166c0.442,1.931,1.158,4.854,1.821,6.674c1.931,4.854,7.86,1.516,6.48-1.931    C88.561,301.559,87.927,299.381,87.431,297.258z M83.018,271.058c-0.909-4.494-6.756-3.889-6.756,0.661    c0.193,2.262,0.44,4.578,0.744,6.84c0.993,4.91,7.501,2.979,6.729-0.883C83.46,275.471,83.184,273.266,83.018,271.058z     M82.577,244.501c0-4.937-6.757-4.356-6.757-0.386c-0.137,2.316-0.22,4.604-0.276,6.895c0,4.633,6.758,4.439,6.758,0.137    C82.356,248.94,82.438,246.707,82.577,244.501z M86.162,218.192c0.883-4.496-5.764-5.683-6.619-1.407    c-0.468,2.262-0.937,4.495-1.323,6.783c-0.856,4.303,5.929,5.543,6.645,1.215L86.162,218.192z M93.718,192.738    c1.655-4.11-4.661-6.564-6.315-2.455c-0.854,2.123-1.599,4.356-2.344,6.536c-1.323,3.31,3.723,6.756,6.261,2.509    C92.174,197.205,92.918,194.916,93.718,192.738z M105.108,168.717c2.013-3.363-2.924-7.336-5.792-3.502    c-1.213,2.012-2.316,4.164-3.418,6.232c-2.208,3.668,3.639,7.06,6.012,3.117L105.108,168.717z M119.999,146.736    c2.814-3.721-2.757-7.609-5.322-4.191l-4.192,5.488c-2.62,3.475,2.869,7.475,5.489,4    C117.271,150.239,118.622,148.475,119.999,146.736z M138.064,127.268c3.364-3.392-1.683-7.915-4.606-4.964l-4.992,4.771    c-3.143,3.171,1.655,7.942,4.799,4.798L138.064,127.268z M158.856,110.749c3.806-2.29-0.275-8.245-3.722-5.683    c-1.93,1.27-3.889,2.676-5.736,4.056c-3.613,2.702,0.497,8.079,4.025,5.433C155.217,113.258,157.037,111.989,158.856,110.749z     M181.912,97.566c1.379-0.553,2.399-2.564,1.766-4.165c-0.772-1.902-2.565-2.784-4.661-1.956c-2.069,0.99-4.164,2.012-6.205,3.088    c-4.22,2.537-0.249,8.053,3.171,5.983C177.941,99.497,179.927,98.532,181.912,97.566z M206.733,88.079    c4.854-1.931,1.516-7.859-1.932-6.509c-2.206,0.662-4.439,1.38-6.617,2.123c-4.496,1.794-1.546,7.916,2.234,6.398    C202.484,89.376,204.636,88.687,206.733,88.079z M232.71,82.51c4.854-0.967,2.952-7.502-0.937-6.729    c-2.29,0.329-4.578,0.661-6.84,1.075c-4.55,0.909-3.006,7.502,1.186,6.674C228.299,83.143,230.504,82.785,232.71,82.51z     M256.345,74.125L252.4,74.18c-0.69,0-1.434,0.304-1.875,0.635c-2.676,1.985-1.351,6.149,2.041,6.149    c3.446-0.108,6.977-0.055,10.423,0.084c4.744,0,4.413-6.786,0.221-6.786L256.345,74.125z M256.345,206.498    c13.375,0,25.48,5.405,34.251,14.176c8.798,8.796,14.23,20.904,14.23,34.307c0,13.375-5.433,25.48-14.202,34.279    c-8.799,8.77-20.904,14.203-34.279,14.203c-13.403,0-25.537-5.434-34.307-14.203l-0.193-0.193    c-8.66-8.77-14.01-20.822-14.01-34.086c0-13.402,5.433-25.511,14.203-34.307C230.808,211.903,242.942,206.498,256.345,206.498z"/></g></g><g id="Layer_1"/></svg>