<svg height="511pt" viewBox="0 -11 511.994 511" width="511pt" xmlns="http://www.w3.org/2000/svg"><path d="m484 244.496094c0 132.550781-107.453125 240-240 240s-240-107.449219-240-240c0-132.546875 107.453125-240 240-240s240 107.453125 240 240zm0 0" fill="#9bc9ff"/><path d="m332 144.496094h-160l-32 32h224zm0 0" fill="#f2c397"/><path d="m140 176.496094h224v176h-224zm0 0" fill="#ffd2a6"/><path d="m260 144.496094h-16l-16 32h48zm0 0" fill="#da4453"/><g fill="#656d78"><path d="m323.992188 332.496094c0 2.199218-1.800782 4-4 4h-8c-2.199219 0-4-1.800782-4-4v-8c0-2.199219 1.800781-4 4-4h8c2.199218 0 4 1.800781 4 4zm0 0"/><path d="m348 332.496094c0 2.199218-1.800781 4-4 4h-8c-2.199219 0-4-1.800782-4-4v-8c0-2.199219 1.800781-4 4-4h8c2.199219 0 4 1.800781 4 4zm0 0"/><path fill='#1e65b5' d="m244 488.496094c-134.535156 0-244-109.464844-244-244s109.464844-244 244-244c78.328125 0 152.441406 38.023437 198.230469 101.703125 1.289062 1.800781.875 4.296875-.910157 5.585937-1.800781 1.28125-4.296874.878906-5.585937-.914062-44.292969-61.597656-115.972656-98.375-191.734375-98.375-130.136719 0-236 105.863281-236 236 0 130.136718 105.863281 236 236 236s236-105.863282 236-236c0-2.207032 1.792969-4 4-4s4 1.792968 4 4c0 134.535156-109.464844 244-244 244zm0 0"/><path d="m508 272.496094c-1.023438 0-2.046875-.390625-2.832031-1.167969l-24-24c-1.558594-1.558594-1.558594-4.09375 0-5.65625 1.558593-1.558594 4.097656-1.558594 5.65625 0l24 24c1.558593 1.5625 1.558593 4.097656 0 5.65625-.777344.777344-1.800781 1.167969-2.824219 1.167969zm0 0"/><path d="m460 272.496094c-1.023438 0-2.046875-.390625-2.832031-1.167969-1.558594-1.558594-1.558594-4.09375 0-5.65625l24-24c1.558593-1.558594 4.097656-1.558594 5.65625 0 1.558593 1.5625 1.558593 4.097656 0 5.65625l-24 24c-.777344.777344-1.800781 1.167969-2.824219 1.167969zm0 0"/></g><path d="m236 212.496094c-2.207031 0-4-1.792969-4-4v-4c0-2.207032 1.792969-4 4-4s4 1.792968 4 4v4c0 2.207031-1.792969 4-4 4zm0 0" fill="#da4453"/><path d="m252 212.496094c-2.207031 0-4-1.792969-4-4v-4c0-2.207032 1.792969-4 4-4s4 1.792968 4 4v4c0 2.207031-1.792969 4-4 4zm0 0" fill="#da4453"/><path d="m268 212.496094c-2.207031 0-4-1.792969-4-4v-4c0-2.207032 1.792969-4 4-4s4 1.792968 4 4v4c0 2.207031-1.792969 4-4 4zm0 0" fill="#da4453"/><path d="m236 324.496094h-80c-2.207031 0-4-1.792969-4-4 0-2.207032 1.792969-4 4-4h80c2.207031 0 4 1.792968 4 4 0 2.207031-1.792969 4-4 4zm0 0" fill="#e2ad81"/><path d="m196 340.496094h-40c-2.207031 0-4-1.792969-4-4 0-2.207032 1.792969-4 4-4h40c2.207031 0 4 1.792968 4 4 0 2.207031-1.792969 4-4 4zm0 0" fill="#e2ad81"/><path d="m276 180.496094c0-2.199219-1.800781-4-4-4h-40c-2.199219 0-4 1.800781-4 4v24c0 2.199218 1.800781 4 4 4h40c2.199219 0 4-1.800782 4-4zm0 0" fill="#ed5565"/><path d="m228 176.496094h48v14.375h-48zm0 0" fill="#ed5565"/></svg>