<svg id="Layer_5" enable-background="new 0 0 64 64" height="512" viewBox="0 0 64 64" width="512" xmlns="http://www.w3.org/2000/svg"><path d="m56 22.7v39.3h-6v-2-8-18-6h-36v6 10h-2-4v-21.3l22.14-13.19c.56-.33 1.21-.51 1.86-.51.66 0 1.3.18 1.86.51z" fill="#e6e9ed"/><path d="m26 16h12v8h-12z" fill="#69d6f4"/><path d="m14 28h36v6h-36z" fill="#aab2bd"/><path d="m14 34h36v28h-36z" fill="#f0d0b4"/><g fill="#cf9e76"><path d="m34 52v8c0 1.1-.9 2-2 2h-6-2c1.1 0 2-.9 2-2v-10h6c1.1 0 2 .9 2 2z"/><path d="m48 50c1.1 0 2 .9 2 2v8c0 1.1-.9 2-2 2h-12c-1.1 0-2-.9-2-2v-8c0-1.1.9-2 2-2z"/><path d="m40 40v8c0 1.1-.9 2-2 2h-2-4-6v-4c0-1.1-.9-2-2-2v-4c0-1.1.9-2 2-2h12c1.1 0 2 .9 2 2z"/></g><path d="m24 44h-18c-1.1 0-2 .9-2 2v14c0 1.1.9 2 2 2h18c1.1 0 2-.9 2-2v-10-4c0-1.1-.9-2-2-2z" fill="#d3a06c"/><path d="m40 50h4v4h-4z" fill="#fcd770"/><path d="m30 38h4v4h-4z" fill="#fcd770"/><path d="m14 44h4v6h-6v-6z" fill="#b27946"/><circle cx="20" cy="22" fill="#69d6f4" r="2"/><circle cx="44" cy="22" fill="#69d6f4" r="2"/><path d="m60.53 18.42c1.42.84 1.89 2.69 1.05 4.11-.54.91-1.53 1.47-2.58 1.47-.54 0-1.07-.15-1.53-.42l-1.47-.88-22.14-13.19c-.56-.33-1.2-.51-1.86-.51-.65 0-1.3.18-1.86.51l-22.14 13.19-1.47.88c-.46.27-.99.42-1.53.42-1.05 0-2.04-.56-2.58-1.47-.84-1.42-.37-3.27 1.05-4.11l26.67-15.91c.56-.33 1.21-.51 1.86-.51.66 0 1.3.18 1.86.51z" fill="#fcd770"/><path d="m57 61v-36.54c.608.352 1.298.54 2 .54 1.406 0 2.726-.752 3.441-1.96.544-.918.698-1.994.434-3.03s-.917-1.907-1.832-2.449l-26.671-15.907c-1.434-.855-3.31-.855-4.743 0l-26.668 15.905c-.918.544-1.57 1.415-1.835 2.451-.266 1.036-.111 2.112.433 3.029.717 1.21 2.036 1.961 3.442 1.961.701 0 1.39-.188 1.999-.539v18.539h-1c-1.654 0-3 1.346-3 3v14c0 .352.072.686.184 1h-2.184v2h5 18 2 6 4 12 15v-2zm-53.721-38.981c-.272-.457-.349-.995-.216-1.514s.458-.954.92-1.228l26.671-15.906c.812-.486 1.879-.486 2.692 0l26.674 15.908c.459.271.784.707.917 1.226.132.519.056 1.056-.217 1.515-.541.911-1.826 1.242-2.738.701l-23.611-14.069c-.717-.426-1.536-.652-2.37-.652s-1.654.226-2.371.652l-23.609 14.068c-.917.546-2.201.213-2.742-.701zm5.721 1.254 21.653-12.902c.813-.485 1.879-.487 2.694 0l21.653 12.901v37.728h-4v-1-8-25h-38v16h-4zm23 25.727h-5v-3c0-1.302-.839-2.402-2-2.816v-3.184c0-.552.448-1 1-1h3v4h6v-4h3c.552 0 1 .448 1 1v8c0 .552-.448 1-1 1h-2zm-1-10h2v2h-2zm10 12h2v2h-2zm-.184-2c.112-.314.184-.648.184-1v-8c0-1.654-1.346-3-3-3h-12c-1.654 0-3 1.346-3 3v3h-8v-8h34v14.184c-.314-.112-.648-.184-1-.184zm8.184-16h-34v-4h34zm-36 12h4v4h-4zm-7 16c-.552 0-1-.448-1-1v-14c0-.552.448-1 1-1h5v6h8v-6h5c.552 0 1 .448 1 1v14c0 .552-.448 1-1 1zm20.816 0c.112-.314.184-.648.184-1v-9h5c.552 0 1 .448 1 1v8c0 .552-.448 1-1 1zm9.184 0c-.552 0-1-.448-1-1v-8c0-.552.448-1 1-1h2 1v4h6v-4h3c.552 0 1 .448 1 1v8c0 .552-.448 1-1 1z"/><path d="m39 15h-14v10h14zm-2 4h-4v-2h4zm-6-2v2h-4v-2zm-4 4h4v2h-4zm6 2v-2h4v2z"/><path d="m13 57h2v2h-2z"/><path d="m21 57h2v2h-2z"/><path d="m17 57h2v2h-2z"/><path d="m20 25c1.654 0 3-1.346 3-3s-1.346-3-3-3-3 1.346-3 3 1.346 3 3 3zm0-4c.552 0 1 .448 1 1s-.448 1-1 1-1-.448-1-1 .448-1 1-1z"/><path d="m44 25c1.654 0 3-1.346 3-3s-1.346-3-3-3-3 1.346-3 3 1.346 3 3 3zm0-4c.552 0 1 .448 1 1s-.448 1-1 1-1-.448-1-1 .448-1 1-1z"/></svg>