<svg height="150pt" viewBox="0 0 250 500" width="150pt" xmlns="http://www.w3.org/2000/svg"><path d="m88 288h104c8.800781 0 16-7.199219 16-16v-16h24v29.761719c0 6.636719-2.078125 13.117187-6 18.558593l-28 39.359376c-3.921875 5.441406-6 11.921874-6 18.558593v125.761719h-144v-141.761719c0-6.636719-2.078125-13.117187-6-18.558593l-28-39.359376c-3.921875-5.441406-6-11.921874-6-18.558593v-117.761719c0-4.398438 3.601562-8 8-8 8.800781 0 16.800781 3.601562 22.640625 9.359375 5.757813 5.839844 9.359375 13.839844 9.359375 22.640625v96c0 8.800781 7.199219 16 16 16zm0 0" fill="#f0d0b4"/><path d="m144 424c8.800781 0 16 7.199219 16 16 0 4.398438-1.761719 8.398438-4.71875 11.28125-2.882812 2.957031-6.882812 4.71875-11.28125 4.71875h-24v-32zm0 0" fill="#ff826e"/><path d="m120 424v32h-24c-8.800781 0-16-7.199219-16-16 0-4.398438 1.761719-8.398438 4.71875-11.28125 2.882812-2.957031 6.882812-4.71875 11.28125-4.71875zm0 0" fill="#fcd770"/><path d="m208 256v16c0 8.800781-7.199219 16-16 16h-128c-8.800781 0-16-7.199219-16-16v-48h136c-2.960938 2.878906-16 11.601562-16 16 0 8.800781 7.199219 16 16 16zm0 0" fill="#838f9b"/><path d="m208 56h-160v168h160zm0 0" fill="#1e65b5"/><g fill="#f0d0b4"><path d="m232 128c8.800781 0 16 7.199219 16 16 0 4.398438-1.761719 8.398438-4.71875 11.28125-2.882812 2.957031-6.882812 4.71875-11.28125 4.71875h-48c-8.800781 0-16-7.199219-16-16 0-4.398438 1.761719-8.398438 4.71875-11.28125 2.882812-2.957031 6.882812-4.71875 11.28125-4.71875zm0 0"/><path d="m232 160c8.800781 0 16 7.199219 16 16 0 4.398438-1.761719 8.398438-4.71875 11.28125-2.882812 2.957031-6.882812 4.71875-11.28125 4.71875h-48c-8.800781 0-16-7.199219-16-16 0-4.398438 1.761719-8.398438 4.71875-11.28125 2.882812-2.957031 6.882812-4.71875 11.28125-4.71875zm0 0"/><path d="m232 192c8.800781 0 16 7.199219 16 16 0 4.398438-1.761719 8.398438-4.71875 11.28125-2.882812 2.957031-6.882812 4.71875-11.28125 4.71875h-48c-8.800781 0-16-7.199219-16-16 0-4.398438 1.761719-8.398438 4.71875-11.28125 2.882812-2.957031 6.882812-4.71875 11.28125-4.71875zm0 0"/><path d="m232 224c8.800781 0 16 7.199219 16 16 0 4.398438-1.761719 8.398438-4.71875 11.28125-2.882812 2.957031-6.882812 4.71875-11.28125 4.71875h-48c-8.800781 0-16-7.199219-16-16 0-4.398438 1.761719-8.398438 4.71875-11.28125 2.882812-2.957031 6.882812-4.71875 11.28125-4.71875zm0 0"/></g><path d="m208 24v32h-160v-32c0-8.800781 7.199219-16 16-16h128c8.800781 0 16 7.199219 16 16zm0 0" fill="#838f9b"/><path d="m232 120h-16v-96c0-13.230469-10.769531-24-24-24h-128c-13.230469 0-24 10.769531-24 24v120.207031c-6.703125-5.078125-14.960938-8.207031-24-8.207031-8.824219 0-16 7.175781-16 16v117.742188c0 8.386718 2.574219 16.425781 7.449219 23.25l28.078125 39.3125c2.929687 4.09375 4.472656 8.917968 4.472656 13.953124v149.742188h160v-133.742188c0-5.035156 1.542969-9.851562 4.472656-13.953124l28.078125-39.3125c4.875-6.824219 7.449219-14.863282 7.449219-23.25v-23.222657c9.289062-3.3125 16-12.113281 16-22.527343 0-6.167969-2.40625-11.746094-6.238281-16 3.839843-4.257813 6.238281-9.832032 6.238281-16 0-6.167969-2.40625-11.746094-6.238281-16 3.839843-4.257813 6.238281-9.832032 6.238281-16 0-6.167969-2.40625-11.746094-6.238281-16 3.839843-4.257813 6.238281-9.832032 6.238281-16 0-13.222657-10.769531-23.992188-24-23.992188zm8 24c0 4.40625-3.59375 8-8 8h-48c-4.40625 0-8-3.59375-8-8s3.59375-8 8-8h48c4.40625 0 8 3.59375 8 8zm0 32c0 4.40625-3.59375 8-8 8h-48c-4.40625 0-8-3.59375-8-8s3.59375-8 8-8h48c4.40625 0 8 3.59375 8 8zm0 32c0 4.40625-3.59375 8-8 8h-48c-4.40625 0-8-3.59375-8-8s3.59375-8 8-8h48c4.40625 0 8 3.59375 8 8zm-176 72c-4.40625 0-8-3.59375-8-8v-40h105.472656c-.898437 2.511719-1.472656 5.183594-1.472656 8s.574219 5.488281 1.472656 8h-73.472656v16h80v-6.238281c4.257812 3.839843 9.832031 6.238281 16 6.238281h16v8c0 4.40625-3.59375 8-8 8zm120-160c-13.230469 0-24 10.769531-24 24 0 6.167969 2.40625 11.742188 6.238281 16-3.839843 4.257812-6.238281 9.832031-6.238281 16s2.40625 11.742188 6.238281 16c-3.839843 4.257812-6.238281 9.832031-6.238281 16 0 2.816406.574219 5.488281 1.472656 8h-105.472656v-96h27.472656l31.605469 52.671875 19.167969-76.671875h65.753906v24zm16-40h-78.246094l-12.832031 51.328125-16.394531-27.328125h-36.527344v-40h144zm-136-64h128c4.40625 0 8 3.59375 8 8v24h-144v-24c0-4.40625 3.59375-8 8-8zm155.527344 283.695312-28.078125 39.3125c-4.875 6.824219-7.449219 14.863282-7.449219 23.25v117.742188h-128v-133.742188c0-8.386718-2.574219-16.425781-7.449219-23.25l-28.078125-39.3125c-2.929687-4.09375-4.472656-8.917968-4.472656-13.953124v-117.742188c13.230469 0 24 10.769531 24 24v96c0 13.230469 10.769531 24 24 24h16v40c0 8.824219 7.175781 16 16 16h48c4.40625 0 8 3.59375 8 8s-3.59375 8-8 8h-32c-8.824219 0-16 7.175781-16 16v32c-13.230469 0-24 10.769531-24 24s10.769531 24 24 24h48c13.230469 0 24-10.769531 24-24s-10.769531-24-24-24h-32v-32h32c13.230469 0 24-10.769531 24-24s-10.769531-24-24-24h-48v-40h96c13.230469 0 24-10.769531 24-24v-8h8v21.742188c0 5.035156-1.542969 9.859374-4.472656 13.953124zm-123.527344 148.304688c-4.40625 0-8-3.59375-8-8s3.59375-8 8-8h16v16zm32-16h16c4.40625 0 8 3.59375 8 8s-3.59375 8-8 8h-16zm104-184h-48c-4.40625 0-8-3.59375-8-8s3.59375-8 8-8h48c4.40625 0 8 3.59375 8 8s-3.59375 8-8 8zm0 0"/></svg>