<?xml version="1.0" encoding="iso-8859-1"?>
<!-- Generator: Adobe Illustrator 19.0.0, SVG Export Plug-In . SVG Version: 6.00 Build 0)  -->
<svg version="1.1" id="Layer_1" xmlns="http://www.w3.org/2000/svg" xmlns:xlink="http://www.w3.org/1999/xlink" x="0px" y="0px"
	 viewBox="0 0 512 512" style="enable-background:new 0 0 512 512;" xml:space="preserve">
<path style="fill:#9bc9ff;" d="M507.231,206.659C484.232,88.887,380.504,0,256,0C114.616,0,0,114.616,0,256
	c0,117.769,79.53,216.949,187.809,246.801L507.231,206.659z"/>
<g>
	<polygon style="fill:#9bc9ff;" points="164.746,96.058 70.315,171.679 241.169,342.532 331.203,252.497 	"/>
	<path style="fill:#9bc9ff;" d="M512,256c0-16.88-1.652-33.373-4.769-49.341l-54.028-54.028l-70.03-31.594L94.609,409.6
		l93.201,93.201C209.522,508.787,232.385,512,256,512C397.385,512,512,397.385,512,256z"/>
</g>
<polygon style="fill:#fff;" points="417.391,145.809 256,45.635 233.739,376.209 372.87,409.6 417.391,409.6 "/>
<polygon style="fill:#FFFFFF;" points="94.609,145.809 94.609,409.6 139.13,409.6 256,376.209 256,45.635 "/>
<polygon style="fill:#1e65b5;" points="256,198.122 216.376,376.209 350.605,409.6 372.87,409.6 372.87,198.122 "/>
<polygon style="fill:#1e65b5;" points="139.13,198.122 139.13,409.6 161.388,409.6 256,376.209 256,198.122 "/>
<polygon style="fill:#1e65b5;" points="339.478,331.687 339.478,287.165 256,287.165 244.87,309.426 256,331.687 "/>
<rect x="172.522" y="287.165" style="fill:#1e65b5;" width="83.478" height="44.522"/>
<polygon style="fill:#1e65b5;" points="339.478,387.339 339.478,342.817 256,342.817 244.87,365.078 256,387.339 "/>
<rect x="172.522" y="342.817" style="fill:#1e65b5;" width="83.478" height="44.522"/>
<g>
	<polygon style="fill:#fff;" points="256,264.904 244.87,281.6 256,298.296 350.609,298.296 350.609,264.904 	"/>
	<polygon style="fill:#fff;" points="256,320.557 244.87,337.252 256,353.948 350.609,353.948 350.609,320.557 	"/>
	<polygon style="fill:#fff;" points="256,376.209 244.87,392.904 256,409.6 350.609,409.6 350.609,376.209 	"/>
</g>
<g>
	<rect x="161.391" y="264.904" style="fill:#fff;" width="94.609" height="33.391"/>
	<rect x="161.391" y="320.557" style="fill:#fff;" width="94.609" height="33.391"/>
	<rect x="161.391" y="376.209" style="fill:#fff;" width="94.609" height="33.391"/>
</g>
<polygon style="fill:#FF0F47;" points="256,33.391 233.739,59.405 256,59.405 441.686,171.679 453.202,152.631 "/>
<polygon style="fill:#FF6176;" points="58.798,152.631 70.317,171.679 256,59.405 256,33.391 "/>
<g>
</g>
<g>
</g>
<g>
</g>
<g>
</g>
<g>
</g>
<g>
</g>
<g>
</g>
<g>
</g>
<g>
</g>
<g>
</g>
<g>
</g>
<g>
</g>
<g>
</g>
<g>
</g>
<g>
</g>
</svg>
